<svg width="37" height="34" viewBox="0 0 37 34" fill="none" xmlns="http://www.w3.org/2000/svg">
<path d="M17.3281 33.0967V34H0.0185547V33.0967H1.11719C2.07747 33.0967 2.85059 32.9258 3.43652 32.584C3.8597 32.3561 4.18522 31.9655 4.41309 31.4121C4.59212 31.0215 4.68164 29.9961 4.68164 28.3359V6.55859C4.68164 4.86589 4.59212 3.80794 4.41309 3.38477C4.23405 2.96159 3.86784 2.59538 3.31445 2.28613C2.77734 1.96061 2.04492 1.79785 1.11719 1.79785H0.0185547V0.894531H17.3281V1.79785H16.2295C15.2692 1.79785 14.4961 1.96875 13.9102 2.31055C13.487 2.53841 13.1533 2.92904 12.9092 3.48242C12.7301 3.87305 12.6406 4.89844 12.6406 6.55859V28.3359C12.6406 30.0286 12.7301 31.0866 12.9092 31.5098C13.1045 31.9329 13.4707 32.3073 14.0078 32.6328C14.5612 32.9421 15.3018 33.0967 16.2295 33.0967H17.3281Z" fill="#343131"/>
<path d="M36.8105 33.0967V34H19.501V33.0967H20.5996C21.5599 33.0967 22.333 32.9258 22.9189 32.584C23.3421 32.3561 23.6676 31.9655 23.8955 31.4121C24.0745 31.0215 24.1641 29.9961 24.1641 28.3359V6.55859C24.1641 4.86589 24.0745 3.80794 23.8955 3.38477C23.7165 2.96159 23.3503 2.59538 22.7969 2.28613C22.2598 1.96061 21.5273 1.79785 20.5996 1.79785H19.501V0.894531H36.8105V1.79785H35.7119C34.7516 1.79785 33.9785 1.96875 33.3926 2.31055C32.9694 2.53841 32.6357 2.92904 32.3916 3.48242C32.2126 3.87305 32.123 4.89844 32.123 6.55859V28.3359C32.123 30.0286 32.2126 31.0866 32.3916 31.5098C32.5869 31.9329 32.9531 32.3073 33.4902 32.6328C34.0436 32.9421 34.7842 33.0967 35.7119 33.0967H36.8105Z" fill="#343131"/>
</svg>
