<svg width="46" height="52" viewBox="0 0 46 52" fill="none" xmlns="http://www.w3.org/2000/svg">
<path d="M44.7679 48.75H42.7143V2.4375C42.7143 1.09129 41.611 0 40.25 0H5.75C4.389 0 3.28571 1.09129 3.28571 2.4375V48.75H1.23214C0.551692 48.75 0 49.2957 0 49.9688V52H46V49.9688C46 49.2957 45.4483 48.75 44.7679 48.75ZM13.1429 7.71875C13.1429 7.0457 13.6945 6.5 14.375 6.5H18.4821C19.1626 6.5 19.7143 7.0457 19.7143 7.71875V11.7812C19.7143 12.4543 19.1626 13 18.4821 13H14.375C13.6945 13 13.1429 12.4543 13.1429 11.7812V7.71875ZM13.1429 17.4688C13.1429 16.7957 13.6945 16.25 14.375 16.25H18.4821C19.1626 16.25 19.7143 16.7957 19.7143 17.4688V21.5312C19.7143 22.2043 19.1626 22.75 18.4821 22.75H14.375C13.6945 22.75 13.1429 22.2043 13.1429 21.5312V17.4688ZM18.4821 32.5H14.375C13.6945 32.5 13.1429 31.9543 13.1429 31.2812V27.2188C13.1429 26.5457 13.6945 26 14.375 26H18.4821C19.1626 26 19.7143 26.5457 19.7143 27.2188V31.2812C19.7143 31.9543 19.1626 32.5 18.4821 32.5ZM26.2857 48.75H19.7143V40.2188C19.7143 39.5457 20.266 39 20.9464 39H25.0536C25.734 39 26.2857 39.5457 26.2857 40.2188V48.75ZM32.8571 31.2812C32.8571 31.9543 32.3055 32.5 31.625 32.5H27.5179C26.8374 32.5 26.2857 31.9543 26.2857 31.2812V27.2188C26.2857 26.5457 26.8374 26 27.5179 26H31.625C32.3055 26 32.8571 26.5457 32.8571 27.2188V31.2812ZM32.8571 21.5312C32.8571 22.2043 32.3055 22.75 31.625 22.75H27.5179C26.8374 22.75 26.2857 22.2043 26.2857 21.5312V17.4688C26.2857 16.7957 26.8374 16.25 27.5179 16.25H31.625C32.3055 16.25 32.8571 16.7957 32.8571 17.4688V21.5312ZM32.8571 11.7812C32.8571 12.4543 32.3055 13 31.625 13H27.5179C26.8374 13 26.2857 12.4543 26.2857 11.7812V7.71875C26.2857 7.0457 26.8374 6.5 27.5179 6.5H31.625C32.3055 6.5 32.8571 7.0457 32.8571 7.71875V11.7812Z" fill="#343131"/>
</svg>
