<svg width="74" height="52" viewBox="0 0 74 52" fill="none" xmlns="http://www.w3.org/2000/svg">
<path d="M22.2 26C29.3572 26 35.15 20.1848 35.15 13C35.15 5.81518 29.3572 0 22.2 0C15.0428 0 9.25 5.81518 9.25 13C9.25 20.1848 15.0428 26 22.2 26ZM31.08 29.7143H30.1203C27.7153 30.875 25.0444 31.5714 22.2 31.5714C19.3556 31.5714 16.6963 30.875 14.2797 29.7143H13.32C5.96625 29.7143 0 35.7036 0 43.0857V46.4286C0 49.5045 2.48594 52 5.55 52H38.85C41.9141 52 44.4 49.5045 44.4 46.4286V43.0857C44.4 35.7036 38.4338 29.7143 31.08 29.7143ZM55.5 26C61.6281 26 66.6 21.0089 66.6 14.8571C66.6 8.70536 61.6281 3.71429 55.5 3.71429C49.3719 3.71429 44.4 8.70536 44.4 14.8571C44.4 21.0089 49.3719 26 55.5 26ZM61.05 29.7143H60.6106C59.0034 30.2714 57.3037 30.6429 55.5 30.6429C53.6963 30.6429 51.9966 30.2714 50.3894 29.7143H49.95C47.5913 29.7143 45.4175 30.3991 43.5097 31.5018C46.3309 34.5545 48.1 38.6054 48.1 43.0857V47.5429C48.1 47.7982 48.0422 48.042 48.0306 48.2857H68.45C71.5141 48.2857 74 45.7902 74 42.7143C74 35.5295 68.2072 29.7143 61.05 29.7143Z" fill="#343131"/>
</svg>
