<svg width="54" height="61" viewBox="0 0 54 61" fill="none" xmlns="http://www.w3.org/2000/svg">
<path d="M27 30.5C35.5219 30.5 42.4286 23.6732 42.4286 15.25C42.4286 6.82676 35.5219 0 27 0C18.4781 0 11.5714 6.82676 11.5714 15.25C11.5714 23.6732 18.4781 30.5 27 30.5ZM38.5473 34.384L32.7857 57.1875L28.9286 40.9844L32.7857 34.3125H21.2143L25.0714 40.9844L21.2143 57.1875L15.4527 34.384C6.85848 34.7891 0 41.735 0 50.325V55.2812C0 58.4385 2.59152 61 5.78571 61H48.2143C51.4085 61 54 58.4385 54 55.2812V50.325C54 41.735 47.1415 34.7891 38.5473 34.384Z" fill="#343131"/>
</svg>
