<svg width="18" height="34" viewBox="0 0 18 34" fill="none" xmlns="http://www.w3.org/2000/svg">
<path d="M17.5693 33.0967V34H0.259766V33.0967H1.3584C2.31868 33.0967 3.0918 32.9258 3.67773 32.584C4.10091 32.3561 4.42643 31.9655 4.6543 31.4121C4.83333 31.0215 4.92285 29.9961 4.92285 28.3359V6.55859C4.92285 4.86589 4.83333 3.80794 4.6543 3.38477C4.47526 2.96159 4.10905 2.59538 3.55566 2.28613C3.01855 1.96061 2.28613 1.79785 1.3584 1.79785H0.259766V0.894531H17.5693V1.79785H16.4707C15.5104 1.79785 14.7373 1.96875 14.1514 2.31055C13.7282 2.53841 13.3945 2.92904 13.1504 3.48242C12.9714 3.87305 12.8818 4.89844 12.8818 6.55859V28.3359C12.8818 30.0286 12.9714 31.0866 13.1504 31.5098C13.3457 31.9329 13.7119 32.3073 14.249 32.6328C14.8024 32.9421 15.543 33.0967 16.4707 33.0967H17.5693Z" fill="#343131"/>
</svg>
