<svg width="58" height="58" viewBox="0 0 58 58" fill="none" xmlns="http://www.w3.org/2000/svg">
<path d="M0 45.9129V50.75C0 54.7488 9.74219 58 21.75 58C33.7578 58 43.5 54.7488 43.5 50.75V45.9129C38.8215 49.2094 30.2687 50.75 21.75 50.75C13.2313 50.75 4.67852 49.2094 0 45.9129ZM36.25 14.5C48.2578 14.5 58 11.2488 58 7.25C58 3.25117 48.2578 0 36.25 0C24.2422 0 14.5 3.25117 14.5 7.25C14.5 11.2488 24.2422 14.5 36.25 14.5ZM0 34.0297V39.875C0 43.8738 9.74219 47.125 21.75 47.125C33.7578 47.125 43.5 43.8738 43.5 39.875V34.0297C38.8215 37.8812 30.2574 39.875 21.75 39.875C13.2426 39.875 4.67852 37.8812 0 34.0297ZM47.125 35.2758C53.616 34.0184 58 31.6848 58 29V24.1629C55.3719 26.0207 51.509 27.2895 47.125 28.0711V35.2758ZM21.75 18.125C9.74219 18.125 0 22.1805 0 27.1875C0 32.1945 9.74219 36.25 21.75 36.25C33.7578 36.25 43.5 32.1945 43.5 27.1875C43.5 22.1805 33.7578 18.125 21.75 18.125ZM46.5926 24.5027C53.3895 23.2793 58 20.8777 58 18.125V13.2879C53.9785 16.1313 47.0684 17.6605 39.7957 18.023C43.1375 19.643 45.5957 21.818 46.5926 24.5027Z" fill="#343131"/>
</svg>
