<svg width="55" height="35" viewBox="0 0 55 35" fill="none" xmlns="http://www.w3.org/2000/svg">
<path d="M17.5029 33.0967V34H0.193359V33.0967H1.29199C2.25228 33.0967 3.02539 32.9258 3.61133 32.584C4.03451 32.3561 4.36003 31.9655 4.58789 31.4121C4.76693 31.0215 4.85645 29.9961 4.85645 28.3359V6.55859C4.85645 4.86589 4.76693 3.80794 4.58789 3.38477C4.40885 2.96159 4.04264 2.59538 3.48926 2.28613C2.95215 1.96061 2.21973 1.79785 1.29199 1.79785H0.193359V0.894531H17.5029V1.79785H16.4043C15.444 1.79785 14.6709 1.96875 14.085 2.31055C13.6618 2.53841 13.3281 2.92904 13.084 3.48242C12.9049 3.87305 12.8154 4.89844 12.8154 6.55859V28.3359C12.8154 30.0286 12.9049 31.0866 13.084 31.5098C13.2793 31.9329 13.6455 32.3073 14.1826 32.6328C14.736 32.9421 15.4766 33.0967 16.4043 33.0967H17.5029Z" fill="#FE0B3C"/>
<path d="M54.2705 0.894531V1.79785C53.0661 1.99316 51.9919 2.63607 51.0479 3.72656C50.3643 4.54036 49.347 6.4528 47.9961 9.46387L36.5947 34.7568H35.7891L24.4365 8.43848C23.0693 5.26465 22.1497 3.40104 21.6777 2.84766C21.222 2.29427 20.3512 1.94434 19.0654 1.79785V0.894531H34.9346V1.79785H34.3975C32.9652 1.79785 31.9886 1.97689 31.4678 2.33496C31.0934 2.5791 30.9062 2.93717 30.9062 3.40918C30.9062 3.70215 30.9714 4.05208 31.1016 4.45898C31.2318 4.84961 31.6712 5.91569 32.4199 7.65723L39.4756 24.1367L46.0186 9.46387C46.7998 7.68978 47.2799 6.50163 47.459 5.89941C47.638 5.2972 47.7275 4.78451 47.7275 4.36133C47.7275 3.87305 47.5973 3.44173 47.3369 3.06738C47.0765 2.69303 46.694 2.4082 46.1895 2.21289C45.4896 1.9362 44.5618 1.79785 43.4062 1.79785V0.894531H54.2705Z" fill="#FE0B3C"/>
</svg>
