<svg width="57" height="34" viewBox="0 0 57 34" fill="none" xmlns="http://www.w3.org/2000/svg">
<path d="M17.5869 33.0967V34H0.277344V33.0967H1.37598C2.33626 33.0967 3.10938 32.9258 3.69531 32.584C4.11849 32.3561 4.44401 31.9655 4.67188 31.4121C4.85091 31.0215 4.94043 29.9961 4.94043 28.3359V6.55859C4.94043 4.86589 4.85091 3.80794 4.67188 3.38477C4.49284 2.96159 4.12663 2.59538 3.57324 2.28613C3.03613 1.96061 2.30371 1.79785 1.37598 1.79785H0.277344V0.894531H17.5869V1.79785H16.4883C15.528 1.79785 14.7549 1.96875 14.1689 2.31055C13.7458 2.53841 13.4121 2.92904 13.168 3.48242C12.9889 3.87305 12.8994 4.89844 12.8994 6.55859V28.3359C12.8994 30.0286 12.9889 31.0866 13.168 31.5098C13.3633 31.9329 13.7295 32.3073 14.2666 32.6328C14.82 32.9421 15.5605 33.0967 16.4883 33.0967H17.5869Z" fill="#343131"/>
<path d="M37.0693 33.0967V34H19.7598V33.0967H20.8584C21.8187 33.0967 22.5918 32.9258 23.1777 32.584C23.6009 32.3561 23.9264 31.9655 24.1543 31.4121C24.3333 31.0215 24.4229 29.9961 24.4229 28.3359V6.55859C24.4229 4.86589 24.3333 3.80794 24.1543 3.38477C23.9753 2.96159 23.609 2.59538 23.0557 2.28613C22.5186 1.96061 21.7861 1.79785 20.8584 1.79785H19.7598V0.894531H37.0693V1.79785H35.9707C35.0104 1.79785 34.2373 1.96875 33.6514 2.31055C33.2282 2.53841 32.8945 2.92904 32.6504 3.48242C32.4714 3.87305 32.3818 4.89844 32.3818 6.55859V28.3359C32.3818 30.0286 32.4714 31.0866 32.6504 31.5098C32.8457 31.9329 33.2119 32.3073 33.749 32.6328C34.3024 32.9421 35.043 33.0967 35.9707 33.0967H37.0693Z" fill="#343131"/>
<path d="M56.5518 33.0967V34H39.2422V33.0967H40.3408C41.3011 33.0967 42.0742 32.9258 42.6602 32.584C43.0833 32.3561 43.4089 31.9655 43.6367 31.4121C43.8158 31.0215 43.9053 29.9961 43.9053 28.3359V6.55859C43.9053 4.86589 43.8158 3.80794 43.6367 3.38477C43.4577 2.96159 43.0915 2.59538 42.5381 2.28613C42.001 1.96061 41.2686 1.79785 40.3408 1.79785H39.2422V0.894531H56.5518V1.79785H55.4531C54.4928 1.79785 53.7197 1.96875 53.1338 2.31055C52.7106 2.53841 52.377 2.92904 52.1328 3.48242C51.9538 3.87305 51.8643 4.89844 51.8643 6.55859V28.3359C51.8643 30.0286 51.9538 31.0866 52.1328 31.5098C52.3281 31.9329 52.6943 32.3073 53.2314 32.6328C53.7848 32.9421 54.5254 33.0967 55.4531 33.0967H56.5518Z" fill="#343131"/>
</svg>
